<?xml version="1.0" encoding="UTF-8" standalone="no"?>
<!-- Created with Inkscape (http://www.inkscape.org/) -->

<svg
   width="210mm"
   height="85.463272mm"
   viewBox="0 0 210 85.463272"
   version="1.1"
   id="svg1"
   xmlns:xlink="http://www.w3.org/1999/xlink"
   xmlns="http://www.w3.org/2000/svg"
   xmlns:svg="http://www.w3.org/2000/svg"
   xmlns:rdf="http://www.w3.org/1999/02/22-rdf-syntax-ns#"
   xmlns:cc="http://creativecommons.org/ns#"
   xmlns:dc="http://purl.org/dc/elements/1.1/">
  <title
     id="title1">CTZN Deterministic Blockchain</title>
  <defs
     id="defs1">
    <linearGradient
       xlink:href="#linearGradient49"
       id="linearGradient50"
       x1="211.53682"
       y1="174.41983"
       x2="261.04178"
       y2="154.24765"
       gradientUnits="userSpaceOnUse"
       gradientTransform="translate(-143.52222,-31.569855)" />
    <linearGradient
       id="linearGradient49">
      <stop
         style="stop-color:#989898;stop-opacity:1;"
         offset="0"
         id="stop49" />
      <stop
         style="stop-color:#f3f3f4;stop-opacity:1"
         offset="1"
         id="stop50" />
    </linearGradient>
    <linearGradient
       xlink:href="#linearGradient69"
       id="linearGradient70"
       x1="152.63126"
       y1="54.684494"
       x2="152.66565"
       y2="80.114365"
       gradientUnits="userSpaceOnUse"
       gradientTransform="translate(-23.429767)" />
    <linearGradient
       id="linearGradient69">
      <stop
         style="stop-color:#606060;stop-opacity:1;"
         offset="0"
         id="stop69" />
      <stop
         style="stop-color:#eaeaea;stop-opacity:0;"
         offset="1"
         id="stop70" />
    </linearGradient>
    <linearGradient
       xlink:href="#linearGradient45"
       id="linearGradient46"
       x1="35.139282"
       y1="158.7662"
       x2="60.339092"
       y2="122.80296"
       gradientUnits="userSpaceOnUse"
       gradientTransform="translate(-35.430379,-9.1433236)" />
    <linearGradient
       id="linearGradient45">
      <stop
         style="stop-color:#a70004;stop-opacity:1;"
         offset="0"
         id="stop45" />
      <stop
         style="stop-color:#fd0e1c;stop-opacity:0.99607843;"
         offset="0.36712351"
         id="stop47" />
      <stop
         style="stop-color:#d10000;stop-opacity:0.99607843;"
         offset="1"
         id="stop46" />
    </linearGradient>
    <linearGradient
       xlink:href="#linearGradient43"
       id="linearGradient44"
       x1="35.139282"
       y1="158.7662"
       x2="36.70031"
       y2="143.20908"
       gradientUnits="userSpaceOnUse"
       gradientTransform="translate(-35.430379,-9.1433236)" />
    <linearGradient
       id="linearGradient43">
      <stop
         style="stop-color:#000000;stop-opacity:1;"
         offset="0"
         id="stop43" />
      <stop
         style="stop-color:#000000;stop-opacity:0;"
         offset="1"
         id="stop44" />
    </linearGradient>
    <linearGradient
       xlink:href="#linearGradient39"
       id="linearGradient40"
       x1="15.626925"
       y1="95.459152"
       x2="97.252037"
       y2="95.459152"
       gradientUnits="userSpaceOnUse"
       gradientTransform="translate(-35.430379,-9.1433236)" />
    <linearGradient
       id="linearGradient39">
      <stop
         style="stop-color:#002e85;stop-opacity:0.99607843;"
         offset="0"
         id="stop39" />
      <stop
         style="stop-color:#0073e8;stop-opacity:0.99607843;"
         offset="1"
         id="stop40" />
    </linearGradient>
    <linearGradient
       xlink:href="#linearGradient79"
       id="linearGradient80"
       x1="26.981815"
       y1="129.51302"
       x2="49.531349"
       y2="141.79936"
       gradientUnits="userSpaceOnUse" />
    <linearGradient
       id="linearGradient79">
      <stop
         style="stop-color:#0054ab;stop-opacity:1;"
         offset="0"
         id="stop79" />
      <stop
         style="stop-color:#ff0000;stop-opacity:1;"
         offset="1"
         id="stop80" />
    </linearGradient>
    <linearGradient
       xlink:href="#linearGradient104"
       id="linearGradient105"
       x1="78.718903"
       y1="113.76455"
       x2="77.915405"
       y2="91.107124"
       gradientUnits="userSpaceOnUse" />
    <linearGradient
       id="linearGradient104">
      <stop
         style="stop-color:#1a1a1a;stop-opacity:0.99215698;"
         offset="0"
         id="stop104" />
      <stop
         style="stop-color:#1a1a1a;stop-opacity:0;"
         offset="1"
         id="stop105" />
    </linearGradient>
    <linearGradient
       xlink:href="#linearGradient35"
       id="linearGradient36"
       x1="153.07924"
       y1="135.41762"
       x2="171.1873"
       y2="85.415062"
       gradientUnits="userSpaceOnUse"
       gradientTransform="translate(-35.358947,-9.0718914)" />
    <linearGradient
       id="linearGradient35">
      <stop
         style="stop-color:#7f868e;stop-opacity:1;"
         offset="0"
         id="stop35" />
      <stop
         style="stop-color:#f3f3f4;stop-opacity:1;"
         offset="0.60335684"
         id="stop36" />
    </linearGradient>
    <linearGradient
       xlink:href="#linearGradient75"
       id="linearGradient76"
       x1="136.71423"
       y1="140.44556"
       x2="146.58456"
       y2="135.45792"
       gradientUnits="userSpaceOnUse" />
    <linearGradient
       id="linearGradient75">
      <stop
         style="stop-color:#ff0000;stop-opacity:1;"
         offset="0"
         id="stop75" />
      <stop
         style="stop-color:#f3f3f4;stop-opacity:1;"
         offset="1"
         id="stop76" />
    </linearGradient>
    <linearGradient
       xlink:href="#linearGradient94"
       id="linearGradient95"
       x1="53.364388"
       y1="102.32098"
       x2="26.167734"
       y2="118.17892"
       gradientUnits="userSpaceOnUse" />
    <linearGradient
       id="linearGradient94">
      <stop
         style="stop-color:#ffd925;stop-opacity:0.99215698;"
         offset="0"
         id="stop94" />
      <stop
         style="stop-color:#ffd925;stop-opacity:0;"
         offset="1"
         id="stop95" />
    </linearGradient>
    <linearGradient
       xlink:href="#linearGradient101"
       id="linearGradient103"
       gradientUnits="userSpaceOnUse"
       x1="78.577431"
       y1="119.96494"
       x2="77.722267"
       y2="79.784195"
       gradientTransform="translate(0.00509568,0.0852228)" />
    <linearGradient
       id="linearGradient101">
      <stop
         style="stop-color:#f4f4f5;stop-opacity:0.99215698;"
         offset="0"
         id="stop101" />
      <stop
         style="stop-color:#f4f4f5;stop-opacity:0;"
         offset="1"
         id="stop102" />
    </linearGradient>
  </defs>
  <g
     id="layer1"
     transform="translate(0,-118.19388)">
    <g
       id="g50"
       transform="translate(75.173248,68.677586)">
      <g
         id="g93"
         transform="matrix(0.50844291,0,0,0.50844291,-4.9553073,33.467608)">
        <path
           id="path47"
           style="fill:#333333;fill-opacity:1;stroke:none;stroke-width:0.195454;stroke-opacity:1"
           d="m 106.50351,61.911786 -1.16427,10.190592 0.48525,-0.325045 1.12706,-9.865547 z m -1.2826,15.153597 -7.203177,3.886067 c 0.02,0.02437 0.0399,0.04902 0.0605,0.0739 0.57004,0.688467 5.344367,-2.795865 6.536547,-2.57452 4.84025,0.718794 3.98461,0.260365 6.93653,3.807003 7.38553,0 13.33148,5.945436 13.33148,13.330969 0,1.641252 -0.29366,3.211602 -0.83147,4.661208 0.91978,-1.81292 1.43764,-3.867198 1.43764,-6.046653 0,-7.385539 -5.94596,-13.33097 -13.33149,-13.33097 -2.95192,-3.54664 -2.09627,-3.088212 -6.93652,-3.807002 z M 70.439052,98.729177 c -0.201795,0.130143 -0.403886,0.261147 -0.606165,0.392741 v 38.539252 h 4.430221 L 89.481303,126.23551 H 109.2279 c 13.47932,0 24.97081,-8.2092 29.76769,-19.92127 -5.11131,10.96888 -16.22025,18.53582 -29.16153,18.53582 H 90.087463 l -15.218191,11.42566 h -4.43022 z" />
        <path
           style="opacity:1;fill:url(#linearGradient50);stroke:url(#linearGradient70);stroke-width:0.195454;stroke-opacity:1"
           d="m 107.10971,60.526319 -1.28519,11.25099 -9.643637,6.466869 1.37617,2.955739 c 4.549207,-2.443698 7.582107,-2.732654 10.342597,-2.634481 2.34012,-0.03125 3.87746,1.367559 4.25782,2.306923 7.38553,0 13.33148,5.945438 13.33148,13.330977 0,7.385524 -5.94595,13.331474 -13.33148,13.331474 H 91.047133 V 88.846547 c -5.90772,0.0784 -13.09787,4.004129 -20.608052,8.889899 V 136.2757 h 4.43022 l 15.218202,-11.42566 h 19.746587 c 17.81776,0 32.16186,-14.34411 32.16186,-32.161854 0,-17.817777 -14.3441,-32.161867 -32.16186,-32.161867 z"
           id="rect3" />
        <path
           style="fill:url(#linearGradient46);fill-opacity:0.996078;stroke:url(#linearGradient44);stroke-width:0.261538;stroke-opacity:1"
           d="m 2.7192303,101.94551 c -6.780458,1.87744 -12.199538,5.34349 -20.8442053,12.97078 5.013767,18.21168 21.6404843,31.51332 41.488423,31.51332 h 37.101907 v -8.94181 l -14.220578,0.15153 c -9.922818,0.50285 -7.985355,-2.11543 -8.165186,-4.17653 l 22.306836,-0.1661 0.230958,-8.01205 H 24.884286 c -12.295473,0 -22.1939937,-9.89852 -22.1939937,-22.19399 0,-0.3841 0.0098,-0.76597 0.02894,-1.14515 z"
           id="path5" />
        <path
           style="fill:url(#linearGradient40);fill-opacity:0.996078;stroke:none;stroke-width:0.261538;stroke-opacity:1"
           d="m 23.363448,60.357343 c -23.84206373,0 -43.036133,19.194069 -43.036133,43.036137 0,3.00418 0.304836,5.93477 0.885218,8.76226 6.2796,-5.62663 14.2400953,-10.47341 21.9226933,-13.525794 C 5.1891523,88.486783 14.117622,80.896658 24.884286,80.896658 h 20.974947 l 1.874548,-2.537857 12.589965,4.07692 1.329872,-3.819544 -10.980209,-7.213513 0.167432,-11.045321 z"
           id="rect2" />
        <path
           style="fill:#db0306;fill-opacity:0.992157;stroke:none;stroke-width:0.195454;stroke-opacity:1"
           d="m 90.441013,127.47056 -0.68058,0.0274 -11.87628,8.66924 0.0574,2.17351 -0.17828,-0.0971 v 0.12816 h -7.930272 v 6.64197 h 1.312641 19.295411 l -3e-5,-13.74613 z"
           id="path4" />
        <path
           id="path70"
           style="vector-effect:non-scaling-stroke;fill:#1a1a1a;fill-opacity:1;stroke:none;stroke-width:0.264583;stroke-dasharray:none;stroke-opacity:1;-inkscape-stroke:hairline"
           d="m 78.023513,139.47572 -7.075539,5.51491 h 1.714624 l 6.981485,-5.51491 z" />
        <g
           id="g24"
           transform="translate(-35.14465,-7.8575437)"
           style="fill:#1a1a1a">
          <path
             id="path22"
             style="vector-effect:non-scaling-stroke;fill:#1a1a1a;fill-opacity:1;stroke:#000000;stroke-width:0.354476;-inkscape-stroke:hairline"
             d="m 62.788416,76.659403 c -16.079217,0 -30.090396,11.003868 -34.535877,25.912117 0.269141,-0.0733 0.550929,-0.11213 0.841292,-0.11214 0.899259,2e-5 1.717405,0.3733 2.32699,0.9834 C 35.589979,89.658501 48.917819,79.468018 64.220886,79.468018 H 75.411934 V 76.659403 Z M 26.973547,108.99231 c -0.05865,0.56607 -0.15727,1.19574 -0.188542,1.76892 -0.05459,1.00053 -0.06565,1.9907 -0.03514,2.96881 0.07789,0.82518 0.07049,1.62512 0.221725,2.52897 l 3.151636,-1.97555 c -0.03038,-0.86963 -0.08675,-1.73406 -0.03824,-2.61947 0.0082,-0.29301 0.02061,-0.58711 0.03721,-0.88212 0.02258,-0.40136 0.05276,-0.80077 0.09043,-1.19838 -0.35046,0.13046 -0.726964,0.20101 -1.118795,0.20102 -0.801219,-2e-5 -1.538011,-0.29605 -2.120284,-0.7922 z" />
          <path
             id="path23"
             style="vector-effect:non-scaling-stroke;fill:#1a1a1a;fill-opacity:1;stroke:#000000;stroke-width:0.264583;stroke-dasharray:none;stroke-opacity:1;-inkscape-stroke:hairline"
             d="m 79.099048,74.048207 a 4.0913267,4.0913267 0 0 0 -4.091223,4.091223 4.0913267,4.0913267 0 0 0 4.091223,4.091223 4.0913267,4.0913267 0 0 0 4.091223,-4.091223 4.0913267,4.0913267 0 0 0 -4.091223,-4.091223 z m 0,1.969389 a 2.1214287,2.1214287 0 0 1 2.121317,2.121834 2.1214287,2.1214287 0 0 1 -2.121317,2.121318 2.1214287,2.1214287 0 0 1 -2.121318,-2.121318 2.1214287,2.1214287 0 0 1 2.121318,-2.121834 z" />
          <path
             id="path24"
             style="vector-effect:non-scaling-stroke;fill:#1a1a1a;fill-opacity:1;stroke:#000000;stroke-width:0.264583;stroke-dasharray:none;stroke-opacity:1;-inkscape-stroke:hairline"
             d="m 29.093946,102.03086 a 4.0913267,4.0913267 0 0 0 -4.091223,4.09122 4.0913267,4.0913267 0 0 0 4.091223,4.09123 4.0913267,4.0913267 0 0 0 4.091223,-4.09123 4.0913267,4.0913267 0 0 0 -4.091223,-4.09122 z m 0,1.96939 a 2.1214287,2.1214287 0 0 1 2.121317,2.12183 2.1214287,2.1214287 0 0 1 -2.121317,2.12132 2.1214287,2.1214287 0 0 1 -2.121318,-2.12132 2.1214287,2.1214287 0 0 1 2.121318,-2.12183 z" />
        </g>
        <g
           id="g22"
           style="stroke:none"
           transform="translate(-35.430379,-9.1433236)">
          <path
             id="rect6"
             style="vector-effect:non-scaling-stroke;fill:#0054ab;fill-opacity:1;stroke:none;stroke-width:0.354476;-inkscape-stroke:hairline"
             d="m 62.788416,76.659403 c -16.079217,0 -30.090396,11.003868 -34.535877,25.912117 0.269141,-0.0733 0.550929,-0.11213 0.841292,-0.11214 0.899259,2e-5 1.717405,0.3733 2.32699,0.9834 C 35.589979,89.658501 48.917819,79.468018 64.220886,79.468018 H 75.411934 V 76.659403 Z M 26.973547,108.99231 c -0.05865,0.56607 -0.15727,1.19574 -0.188542,1.76892 -0.05459,1.00053 -0.06565,1.9907 -0.03514,2.96881 0.07789,0.82518 0.07049,1.62512 0.221725,2.52897 l 3.151636,-1.97555 c -0.03038,-0.86963 -0.08675,-1.73406 -0.03824,-2.61947 0.0082,-0.29301 0.02061,-0.58711 0.03721,-0.88212 0.02258,-0.40136 0.05276,-0.80077 0.09043,-1.19838 -0.35046,0.13046 -0.726964,0.20101 -1.118795,0.20102 -0.801219,-2e-5 -1.538011,-0.29605 -2.120284,-0.7922 z" />
          <path
             id="path6"
             style="vector-effect:non-scaling-stroke;fill:#0054ab;fill-opacity:1;stroke:none;stroke-width:0.264583;stroke-dasharray:none;stroke-opacity:1;-inkscape-stroke:hairline"
             d="m 79.099048,74.048207 a 4.0913267,4.0913267 0 0 0 -4.091223,4.091223 4.0913267,4.0913267 0 0 0 4.091223,4.091223 4.0913267,4.0913267 0 0 0 4.091223,-4.091223 4.0913267,4.0913267 0 0 0 -4.091223,-4.091223 z m 0,1.969389 a 2.1214287,2.1214287 0 0 1 2.121317,2.121834 2.1214287,2.1214287 0 0 1 -2.121317,2.121318 2.1214287,2.1214287 0 0 1 -2.121318,-2.121318 2.1214287,2.1214287 0 0 1 2.121318,-2.121834 z" />
          <path
             id="path7"
             style="vector-effect:non-scaling-stroke;fill:#0054ab;fill-opacity:1;stroke:none;stroke-width:0.264583;stroke-dasharray:none;stroke-opacity:1;-inkscape-stroke:hairline"
             d="m 29.093946,102.03086 a 4.0913267,4.0913267 0 0 0 -4.091223,4.09122 4.0913267,4.0913267 0 0 0 4.091223,4.09123 4.0913267,4.0913267 0 0 0 4.091223,-4.09123 4.0913267,4.0913267 0 0 0 -4.091223,-4.09122 z m 0,1.96939 a 2.1214287,2.1214287 0 0 1 2.121317,2.12183 2.1214287,2.1214287 0 0 1 -2.121317,2.12132 2.1214287,2.1214287 0 0 1 -2.121318,-2.12132 2.1214287,2.1214287 0 0 1 2.121318,-2.12183 z" />
        </g>
        <g
           id="g26"
           style="fill:#1a1a1a"
           transform="translate(-35.001786,-8.1432726)">
          <path
             style="vector-effect:non-scaling-stroke;fill:#1a1a1a;fill-opacity:1;stroke:#000000;stroke-width:0.354476;-inkscape-stroke:hairline"
             d="m 30.123226,114.28346 c -1.0881,0.57626 -2.124035,1.24248 -3.14141,1.95751 1.750764,16.2058 15.095102,28.50162 32.092098,28.50162 h 13.45861 v -2.64687 H 60.697587 c -16.691995,0 -29.669843,-12.12463 -30.574361,-27.81226 z"
             id="path25" />
          <path
             id="path26"
             style="vector-effect:non-scaling-stroke;fill:#1a1a1a;fill-opacity:0.996078;stroke:#000000;stroke-width:0.264583;stroke-dasharray:none;stroke-opacity:1;-inkscape-stroke:hairline"
             d="m 75.664354,140.11555 a 4.0913267,4.0913267 0 0 0 -4.091223,4.09122 4.0913267,4.0913267 0 0 0 4.091223,4.09123 4.0913267,4.0913267 0 0 0 4.091223,-4.09123 4.0913267,4.0913267 0 0 0 -4.091223,-4.09122 z m 0,1.96939 a 2.1214287,2.1214287 0 0 1 2.121317,2.12183 2.1214287,2.1214287 0 0 1 -2.121317,2.12132 2.1214287,2.1214287 0 0 1 -2.121318,-2.12132 2.1214287,2.1214287 0 0 1 2.121318,-2.12183 z" />
        </g>
        <g
           id="g29"
           transform="translate(-35.287515,-8.0004082)"
           style="fill:#1a1a1a;stroke:none">
          <path
             style="vector-effect:non-scaling-stroke;fill:#1a1a1a;fill-opacity:1;stroke:none;stroke-width:0.354476;-inkscape-stroke:hairline"
             d="m 135.64987,136.58081 -10.47612,0.0878 -11.62409,8.64133 -13.901479,-0.0713 -3.50024,-3.14296 H 78.644248 v 2.64687 h 16.789203 l 3.214274,2.57142 16.220715,0.24287 11.10578,-8.45736 9.67565,-0.21497 z"
             id="path27" />
          <path
             id="path28"
             style="vector-effect:non-scaling-stroke;fill:#1a1a1a;fill-opacity:1;stroke:none;stroke-width:0.264583;stroke-dasharray:none;stroke-opacity:1;-inkscape-stroke:hairline"
             d="m 152.25723,129.98546 -0.0383,-1.75005 -3.06378,3.51567 -7.33634,4.17569 c -0.7536,-1.16729 -2.04811,-1.87234 -3.43752,-1.87224 -2.2595,6e-5 -4.09117,1.83173 -4.09122,4.09123 6e-5,2.25949 1.83173,4.09116 4.09122,4.09122 2.1893,-1.3e-4 3.99054,-1.7237 4.0871,-3.91087 l -1e-5,-5.2e-4 9.78881,-5.50877 z m -13.87589,6.03846 c 1.17175,7e-5 2.12154,0.95009 2.12131,2.12184 -7e-5,1.17154 -0.94977,2.12124 -2.12131,2.12131 -1.17154,-6e-5 -2.12125,-0.94977 -2.12132,-2.12131 -2.3e-4,-1.17175 0.94957,-2.12178 2.12132,-2.12184 z" />
        </g>
        <g
           id="g25"
           style="fill:#ff0000;stroke:none"
           transform="translate(-35.430379,-9.1433236)">
          <path
             style="vector-effect:non-scaling-stroke;fill:url(#linearGradient80);stroke:none;stroke-width:0.354476;-inkscape-stroke:hairline"
             d="m 30.123226,114.28346 c -1.0881,0.57626 -2.124035,1.24248 -3.14141,1.95751 1.750764,16.2058 15.095102,28.50162 32.092098,28.50162 h 13.45861 v -2.64687 H 60.697587 c -16.691995,0 -29.669843,-12.12463 -30.574361,-27.81226 z"
             id="path19" />
          <path
             id="path8"
             style="vector-effect:non-scaling-stroke;fill:#ff0000;fill-opacity:0.996078;stroke:none;stroke-width:0.264583;stroke-dasharray:none;stroke-opacity:1;-inkscape-stroke:hairline"
             d="m 75.664354,140.11555 a 4.0913267,4.0913267 0 0 0 -4.091223,4.09122 4.0913267,4.0913267 0 0 0 4.091223,4.09123 4.0913267,4.0913267 0 0 0 4.091223,-4.09123 4.0913267,4.0913267 0 0 0 -4.091223,-4.09122 z m 0,1.96939 a 2.1214287,2.1214287 0 0 1 2.121317,2.12183 2.1214287,2.1214287 0 0 1 -2.121317,2.12132 2.1214287,2.1214287 0 0 1 -2.121318,-2.12132 2.1214287,2.1214287 0 0 1 2.121318,-2.12183 z" />
        </g>
        <path
           id="path32"
           style="vector-effect:non-scaling-stroke;fill:#1a1a1a;fill-opacity:0.996078;stroke:none;stroke-width:0.264583;stroke-dasharray:none;stroke-opacity:1;-inkscape-stroke:hairline"
           d="m 115.24163,113.59671 a 4.0913267,4.0913267 0 0 0 -4.09123,4.09122 4.0913267,4.0913267 0 0 0 4.09123,4.09123 4.0913267,4.0913267 0 0 0 4.09122,-4.09123 4.0913267,4.0913267 0 0 0 -4.09122,-4.09122 z m 0,1.96939 a 2.1214287,2.1214287 0 0 1 2.12131,2.12183 2.1214287,2.1214287 0 0 1 -2.12131,2.12132 2.1214287,2.1214287 0 0 1 -2.12132,-2.12132 2.1214287,2.1214287 0 0 1 2.12132,-2.12183 z" />
        <path
           id="path12"
           style="vector-effect:non-scaling-stroke;fill:url(#linearGradient105);fill-opacity:0.992157;stroke:none;stroke-width:0.264583;stroke-dasharray:none;stroke-opacity:1;-inkscape-stroke:hairline"
           d="m 78.218688,83.448674 c -2.2595,6e-5 -4.090815,1.831375 -4.090875,4.090875 8e-5,1.73374 1.092341,3.27917 2.726911,3.85711 v 28.528391 a 4.0913267,4.0913267 0 0 0 -3.102967,3.96992 4.0913267,4.0913267 0 0 0 4.091892,4.0919 4.0913267,4.0913267 0 0 0 4.090875,-4.0919 4.0913267,4.0913267 0 0 0 -2.453509,-3.74836 V 91.431216 c 1.68664,-0.54719 2.828598,-2.118487 2.828548,-3.891667 -6e-5,-2.2595 -1.831375,-4.090825 -4.090875,-4.090875 z m 0,1.969718 c 1.17175,-2.2e-4 2.122113,0.949407 2.122173,2.121157 -6e-5,1.17175 -0.950423,2.121376 -2.122173,2.121156 -1.17155,-6e-5 -2.121097,-0.949606 -2.121157,-2.121156 6e-5,-1.17155 0.949607,-2.121097 2.121157,-2.121157 z m -0.375039,36.355428 a 2.1214287,2.1214287 0 0 1 2.121157,2.12115 2.1214287,2.1214287 0 0 1 -2.121157,2.12218 2.1214287,2.1214287 0 0 1 -2.121157,-2.12218 2.1214287,2.1214287 0 0 1 2.121157,-2.12115 z" />
        <path
           id="path30"
           style="vector-effect:non-scaling-stroke;fill:#1a1a1a;fill-opacity:1;stroke:none;stroke-width:0.264583;stroke-dasharray:none;stroke-opacity:1;-inkscape-stroke:hairline"
           d="m 86.953493,116.30192 -7.058753,6.08512 0.89102,2.31171 6.903533,-6.19752 23.726927,-0.0794 0.0141,-2.10156 z" />
        <path
           style="vector-effect:non-scaling-stroke;fill:url(#linearGradient36);stroke:none;stroke-width:0.264583;stroke-dasharray:none;stroke-opacity:1;-inkscape-stroke:hairline"
           d="m 118.29174,115.61304 c 9.4682,-2.3778 14.02935,-11.17719 16.96515,-18.500952 -1.06405,11.140592 -8.23582,18.356682 -16.71513,20.751072 z"
           id="path33" />
        <path
           id="path67"
           style="vector-effect:non-scaling-stroke;fill:#1a1a1a;fill-opacity:0.133721;stroke:none;stroke-width:0.264583;stroke-dasharray:none;stroke-opacity:1;-inkscape-stroke:hairline"
           d="m 78.197815,52.863237 -4.24333,3.636559 2.316299,15.419295 c -0.315399,0.02653 -0.629617,0.06164 -0.943188,0.104686 l -2.282759,-14.008579 -2.524654,2.424034 2.761467,11.988043 c -1.372317,0.353649 -2.698259,0.867382 -3.950616,1.530647 l -6.464091,-12.367146 -3.086705,0.191076 8.2966,12.904805 c -0.496753,0.316527 -0.977701,0.657974 -1.441208,1.021448 l -9.228607,-13.69757 -5.770929,-1.11597 -0.121964,5.591031 13.235124,10.928989 c -0.214985,0.223851 -0.423918,0.452444 -0.627098,0.687063 l -12.424064,-10.23481 -0.108751,3.844915 11.317241,7.960182 c -1.043822,1.51381 -1.850548,3.178362 -2.392527,4.935475 l -12.610059,-3.142605 -1.905687,2.434198 14.124445,2.200433 c -0.126724,0.583056 -0.224221,1.172705 -0.292714,1.765429 l -15.235333,-2.038832 -4.225035,3.155818 3.659936,4.221986 15.699812,-2.44741 c 0.01429,0.315938 0.03726,0.631483 0.0681,0.946237 l -14.248442,2.402691 2.43928,2.511441 12.129317,-2.865137 c 0.423698,1.963317 1.171375,3.84199 2.21263,5.559524 4.394373,-2.918985 8.814138,-5.620819 13.284926,-7.902249 -1.472356,-0.808184 -2.414808,-2.364996 -2.414887,-4.08376 6.8e-5,-2.57282 2.085188,-4.657938 4.658007,-4.658007 2.57282,5.7e-5 4.658956,2.085187 4.659024,4.658007 1e-5,0.335246 -0.0361,0.664537 -0.104686,0.982826 4.180024,-1.666779 8.413253,-2.887477 12.719827,-3.500366 l -0.0051,-0.01626 c 0.0861,-0.0062 0.172703,-0.01287 0.259173,-0.01931 1.60462,-0.2193 3.219092,-0.353666 4.845021,-0.395366 1.14214,-0.08267 2.27827,-0.144424 3.37942,-0.155504 l 0.0152,-0.0183 c 0.35087,1.116079 1.38521,1.876212 2.55514,1.876213 1.47956,1.12e-4 2.67924,-1.199575 2.67914,-2.679142 -1.2e-4,-1.319593 -0.96172,-2.442806 -2.26548,-2.646618 l 0.0173,-0.01931 c -0.0607,-5.7e-4 -0.12167,-9.27e-4 -0.18193,-0.001 -0.0828,-0.0078 -0.16584,-0.01211 -0.24901,-0.0122 -0.0988,5.7e-5 -0.19761,0.0053 -0.29576,0.01626 -5.17303,0.10294 -8.545041,1.817518 -11.120071,2.962708 -0.48348,-1.315165 -1.118298,-2.569592 -1.891458,-3.738196 l 10.915779,-7.17758 0.28763,-3.337747 -12.10086,9.27536 C 91.60731,78.25453 91.21533,77.805403 90.80173,77.376989 l 13.3825,-10.411658 0.75923,-4.887706 -7.15726,-0.10062 -9.075136,13.546132 c -0.2498,-0.189352 -0.503991,-0.371709 -0.763291,-0.547822 l 8.145161,-12.491143 -3.49935,0.08944 -6.394978,11.353829 c -1.146815,-0.602109 -2.35518,-1.078981 -3.60399,-1.422923 L 85.672174,60.439232 83.24814,58.520333 81.04669,72.150823 C 80.45686,72.042773 79.86265,71.963972 79.265,71.915026 L 81.328223,57.10555 Z" />
        <path
           id="path61"
           style="vector-effect:non-scaling-stroke;fill:#ffd826;fill-opacity:0.992157;stroke:none;stroke-width:0.264583;stroke-dasharray:none;stroke-opacity:1;-inkscape-stroke:hairline"
           d="m 79.054612,52.00644 -4.24333,3.635543 2.317315,15.420311 c -0.3154,0.02653 -0.630634,0.06164 -0.944204,0.104686 l -2.281743,-14.008579 -2.52567,2.424034 2.761467,11.987026 c -1.372317,0.353649 -2.698259,0.867383 -3.950616,1.530648 l -6.464091,-12.36613 -3.086705,0.19006 8.2966,12.905821 c -0.496753,0.316527 -0.977701,0.656958 -1.441208,1.020432 l -9.228607,-13.696554 -5.769913,-1.116987 -0.12298,5.592048 13.235124,10.927972 c -0.214985,0.223851 -0.423918,0.453462 -0.627098,0.688081 l -12.424064,-10.234811 -0.108751,3.843898 11.318257,7.961199 c -1.043822,1.51381 -1.850548,3.177346 -2.392527,4.934459 l -12.610058,-3.142605 -1.906704,2.435214 14.124445,2.200433 c -0.126724,0.583056 -0.224221,1.171688 -0.292714,1.764412 l -15.235333,-2.037814 -4.225035,3.155817 3.659936,4.221987 15.699812,-2.447411 c 0.01429,0.315938 0.03726,0.631483 0.0681,0.946237 l -14.247425,2.401674 2.438263,2.512458 12.129317,-2.865137 c 0.423698,1.963317 1.171375,3.841991 2.21263,5.559525 0.618551,-0.410876 1.237223,-0.817927 1.856901,-1.21964 A 15.840486,15.840486 0 0 1 62.800879,89.107881 15.840486,15.840486 0 0 1 78.641967,73.26781 15.840486,15.840486 0 0 1 93.74314,84.325877 c 0.746987,-0.143026 1.495894,-0.26812 2.247186,-0.37504 l -0.0051,-0.01626 c 0.0861,-0.0062 0.172703,-0.01287 0.259173,-0.01931 1.60462,-0.2193 3.219088,-0.353667 4.845021,-0.395367 1.14214,-0.08267 2.27725,-0.144424 3.3784,-0.155504 l 0.0152,-0.0183 c 0.35087,1.116079 1.38522,1.875195 2.55515,1.875196 1.47957,1.12e-4 2.67925,-1.199575 2.67914,-2.679142 -1.1e-4,-1.319593 -0.9607,-2.441789 -2.26446,-2.645601 l 0.0163,-0.02033 c -0.0607,-5.7e-4 -0.12167,-9.26e-4 -0.18193,-0.001 -0.0828,-0.0078 -0.16584,-0.01109 -0.24901,-0.01118 -0.0988,5.7e-5 -0.1966,0.0053 -0.29475,0.01626 -5.17303,0.10294 -8.546047,1.816502 -11.121077,2.961692 -0.48348,-1.315165 -1.118298,-2.569592 -1.891458,-3.738196 l 10.915775,-7.176564 0.28763,-3.337747 -12.100856,9.27536 c -0.36934,-0.467112 -0.76132,-0.916239 -1.17492,-1.344653 l 13.382496,-10.411658 0.75922,-4.888722 -7.157246,-0.0996 -9.075136,13.546132 c -0.2498,-0.189352 -0.503991,-0.372725 -0.763291,-0.548838 l 8.146177,-12.490127 -3.500366,0.08944 -6.394978,11.35383 c -1.14686,-0.602099 -2.354209,-1.079988 -3.603019,-1.42393 l 3.077558,-12.06427 -2.42505,-1.919916 -2.200434,13.630491 c -0.58983,-0.10805 -1.185057,-0.186851 -1.782707,-0.235797 l 2.064241,-14.808459 z m -0.412645,23.333741 a 13.768227,13.768227 0 0 0 -13.768716,13.7677 13.768227,13.768227 0 0 0 1.917883,7.009879 c 2.804893,-1.771351 5.622862,-3.432833 8.460234,-4.93141 -1.261558,-0.852066 -2.050955,-2.288939 -2.051027,-3.861176 6.8e-5,-2.57282 2.085188,-4.657938 4.658007,-4.658007 2.57282,5.7e-5 4.658956,2.085187 4.659024,4.658007 4e-6,0.147665 -0.0077,0.29423 -0.02134,0.43907 3.039248,-1.253488 6.10678,-2.275118 9.209297,-3.003363 a 13.768227,13.768227 0 0 0 -13.063358,-9.4207 z" />
        <g
           id="g27"
           style="fill:#ff0000;stroke:none"
           transform="translate(-35.430379,-9.1433236)">
          <path
             style="vector-effect:non-scaling-stroke;fill:#ff0000;fill-opacity:1;stroke:none;stroke-width:0.354476;-inkscape-stroke:hairline"
             d="m 135.43557,136.58081 -10.26182,0.0878 -11.62409,8.64133 -13.901479,-0.0713 -3.50024,-3.14296 H 78.644248 v 2.64687 h 16.789203 l 3.214274,2.57142 16.220715,0.24287 11.10578,-8.45736 9.46135,-0.21497 z"
             id="path17" />
          <path
             id="rect20"
             style="vector-effect:non-scaling-stroke;fill:url(#linearGradient76);stroke:none;stroke-width:0.264583;stroke-dasharray:none;stroke-opacity:1;-inkscape-stroke:hairline"
             d="m 149.18616,129.57341 -0.0297,2.17575 -6.76643,4.17744 c -0.7535,-1.16713 -2.04777,-1.87215 -3.437,-1.87223 -2.25949,6e-5 -4.09116,1.83173 -4.09122,4.09122 6e-5,2.25949 1.83173,4.09116 4.09122,4.09122 2.18949,-1.5e-4 3.9908,-1.72402 4.08709,-3.91139 l 8.7028,-5.18034 -0.0306,-3.7745 z m -10.23313,6.45034 c 1.17175,6e-5 2.12155,0.95009 2.12132,2.12184 -6e-5,1.17155 -0.94977,2.12126 -2.12132,2.12132 -1.17155,-6e-5 -2.12126,-0.94977 -2.12132,-2.12132 -2.3e-4,-1.17175 0.94957,-2.12178 2.12132,-2.12184 z" />
        </g>
        <path
           id="path21"
           style="vector-effect:non-scaling-stroke;fill:#f4f4f5;fill-opacity:0.992157;stroke:none;stroke-width:0.264583;stroke-dasharray:none;stroke-opacity:1;-inkscape-stroke:hairline"
           d="m 86.498901,115.39274 -7.386141,6.36735 1.190393,2.05463 6.931548,-6.22267 23.726929,-0.0794 0.0141,-2.10156 z" />
        <path
           id="path31"
           style="vector-effect:non-scaling-stroke;fill:#1a1a1a;fill-opacity:0.996078;stroke:none;stroke-width:0.264583;stroke-dasharray:none;stroke-opacity:1;-inkscape-stroke:hairline"
           d="m 77.855299,120.41954 a 4.0913267,4.0913267 0 0 0 -4.09123,4.09122 4.0913267,4.0913267 0 0 0 4.09123,4.09123 4.0913267,4.0913267 0 0 0 4.09122,-4.09123 4.0913267,4.0913267 0 0 0 -4.09122,-4.09122 z m 0,1.96939 a 2.1214287,2.1214287 0 0 1 2.12131,2.12183 2.1214287,2.1214287 0 0 1 -2.12131,2.12132 2.1214287,2.1214287 0 0 1 -2.12132,-2.12132 2.1214287,2.1214287 0 0 1 2.12132,-2.12183 z" />
        <path
           id="path11"
           style="vector-effect:non-scaling-stroke;fill:#f4f4f5;fill-opacity:0.992157;stroke:none;stroke-width:0.264583;stroke-dasharray:none;stroke-opacity:1;-inkscape-stroke:hairline"
           d="m 114.78704,112.54467 a 4.0913267,4.0913267 0 0 0 -4.09123,4.09122 4.0913267,4.0913267 0 0 0 4.09123,4.09123 4.0913267,4.0913267 0 0 0 4.09122,-4.09123 4.0913267,4.0913267 0 0 0 -4.09122,-4.09122 z m 0,1.96939 a 2.1214287,2.1214287 0 0 1 2.12131,2.12183 2.1214287,2.1214287 0 0 1 -2.12131,2.12132 2.1214287,2.1214287 0 0 1 -2.12132,-2.12132 2.1214287,2.1214287 0 0 1 2.12132,-2.12183 z" />
        <path
           style="fill:#a60205;fill-opacity:0.992157;stroke:none;stroke-width:0.195454;stroke-opacity:1"
           d="m 72.686203,145.01374 -1.747877,1.58167 h 19.502727 l -3e-5,-15.3278 z"
           id="path85" />
        <path
           id="path90"
           style="vector-effect:non-scaling-stroke;fill:url(#linearGradient95);stroke:none;stroke-width:0.383169;stroke-dasharray:none;stroke-opacity:1;-inkscape-stroke:hairline"
           d="m 25.076657,88.900736 1.473204,8.116666 -6.472884,3.890838 7.361427,1.00361 1.313639,7.23938 3.381149,-6.59915 8.335746,1.13703 -5.883832,-5.921558 3.302728,-6.446836 -6.847361,2.75338 z m 30.368047,5.945648 0.698343,3.847497 -3.068305,1.844329 3.489484,0.47575 0.622703,3.43163 1.602752,-3.12815 3.951345,0.53898 -2.789076,-2.806955 1.565566,-3.055961 -3.24581,1.30517 z m -13.886101,6.395616 0.992445,5.46791 -4.360544,2.62111 4.959119,0.6761 0.884957,4.8769 2.277756,-4.4456 5.615488,0.76597 -3.963721,-3.98913 2.224924,-4.34301 -4.612821,1.85486 z" />
        <text
           xml:space="preserve"
           style="font-size:12.4657px;text-align:start;letter-spacing:4.67783px;writing-mode:lr-tb;direction:ltr;text-anchor:start;opacity:1;vector-effect:non-scaling-stroke;fill:#fbd986;fill-opacity:0.988235;stroke:none;stroke-width:1.03881;stroke-dasharray:none;stroke-opacity:1;-inkscape-stroke:hairline"
           x="-37.329834"
           y="165.26714"
           id="text95"><tspan
             id="tspan95"
             style="letter-spacing:4.67783px;fill:#fbd986;fill-opacity:0.988235;stroke-width:1.03881"
             x="-37.329834"
             y="165.26714">CITIZEN <tspan
   style="fill:#ffffff;fill-opacity:0.988235"
   id="tspan96">PROTOCOL</tspan></tspan></text>
        <g
           id="g99"
           transform="matrix(1.2697005,0,0,1.2697005,-31.192318,-60.815848)">
          <text
             xml:space="preserve"
             style="font-size:6.03938px;text-align:start;letter-spacing:0px;writing-mode:lr-tb;direction:ltr;text-anchor:start;opacity:1;vector-effect:non-scaling-stroke;fill:#ffffff;fill-opacity:0.72549;stroke:none;stroke-width:0.503282;stroke-dasharray:none;stroke-opacity:1;-inkscape-stroke:hairline"
             x="23.722931"
             y="186.14354"
             id="text97"><tspan
               id="tspan97"
               style="letter-spacing:0px;fill:#ffffff;fill-opacity:0.72549;stroke-width:0.503282"
               x="23.722931"
               y="186.14354">validate</tspan></text>
          <text
             xml:space="preserve"
             style="font-size:6.03938px;text-align:start;letter-spacing:0px;writing-mode:lr-tb;direction:ltr;text-anchor:start;opacity:1;vector-effect:non-scaling-stroke;fill:#ffffff;fill-opacity:0.72549;stroke:none;stroke-width:0.503282;stroke-dasharray:none;stroke-opacity:1;-inkscape-stroke:hairline"
             x="65.121841"
             y="186.14354"
             id="text98"><tspan
               id="tspan98"
               style="letter-spacing:0px;fill:#ffffff;fill-opacity:0.72549;stroke-width:0.503282"
               x="65.121841"
               y="186.14354">build</tspan></text>
          <text
             xml:space="preserve"
             style="font-size:6.03938px;text-align:start;letter-spacing:0px;writing-mode:lr-tb;direction:ltr;text-anchor:start;opacity:1;vector-effect:non-scaling-stroke;fill:#ffffff;fill-opacity:0.72549;stroke:none;stroke-width:0.503282;stroke-dasharray:none;stroke-opacity:1;-inkscape-stroke:hairline"
             x="97.39975"
             y="186.14354"
             id="text99"><tspan
               id="tspan99"
               style="letter-spacing:0px;fill:#ffffff;fill-opacity:0.72549;stroke-width:0.503282"
               x="97.39975"
               y="186.14354">observe</tspan></text>
        </g>
        <path
           id="path102"
           style="vector-effect:non-scaling-stroke;fill:url(#linearGradient103);fill-opacity:0.992157;stroke:none;stroke-width:0.264583;stroke-dasharray:none;stroke-opacity:1;-inkscape-stroke:hairline"
           d="m 77.851247,83.310375 c -2.2595,6e-5 -4.090815,1.831375 -4.090875,4.090875 8e-5,1.73374 1.092341,3.27917 2.726911,3.85711 v 28.52839 a 4.0913267,4.0913267 0 0 0 -3.102967,3.96992 4.0913267,4.0913267 0 0 0 4.091892,4.0919 4.0913267,4.0913267 0 0 0 4.090875,-4.0919 4.0913267,4.0913267 0 0 0 -2.453509,-3.74836 V 91.292917 c 1.68664,-0.54719 2.828598,-2.118487 2.828548,-3.891667 -6e-5,-2.2595 -1.831375,-4.090825 -4.090875,-4.090875 z m 0,1.969718 c 1.17175,-2.2e-4 2.122113,0.949407 2.122173,2.121157 -6e-5,1.17175 -0.950423,2.121376 -2.122173,2.121156 -1.17155,-6e-5 -2.121097,-0.949606 -2.121157,-2.121156 6e-5,-1.17155 0.949607,-2.121097 2.121157,-2.121157 z m -0.375039,36.355427 a 2.1214287,2.1214287 0 0 1 2.121157,2.12115 2.1214287,2.1214287 0 0 1 -2.121157,2.12218 2.1214287,2.1214287 0 0 1 -2.121157,-2.12218 2.1214287,2.1214287 0 0 1 2.121157,-2.12115 z" />
      </g>
    </g>
  </g>
  <metadata
     id="metadata1">
    <rdf:RDF>
      <cc:Work
         rdf:about="">
        <dc:creator>
          <cc:Agent>
            <dc:title>greenarmor</dc:title>
          </cc:Agent>
        </dc:creator>
        <dc:rights>
          <cc:Agent>
            <dc:title>copyright 2025</dc:title>
          </cc:Agent>
        </dc:rights>
        <dc:publisher>
          <cc:Agent>
            <dc:title>Emmanuel Secretaria</dc:title>
          </cc:Agent>
        </dc:publisher>
        <dc:identifier>greenarmor</dc:identifier>
        <dc:source>https://github.com/greenarmor/citizen-protocol-v0.1.0</dc:source>
        <dc:language>svg</dc:language>
        <dc:subject>
          <rdf:Bag>
            <rdf:li>Citizen Protocol Logo</rdf:li>
          </rdf:Bag>
        </dc:subject>
        <dc:date>Dec 14, 2025</dc:date>
        <dc:title>CTZN Deterministic Blockchain</dc:title>
        <dc:description>CITIZEN-Protocol Consensus Mechanism</dc:description>
        <dc:contributor>
          <cc:Agent>
            <dc:title>greenarmor</dc:title>
          </cc:Agent>
        </dc:contributor>
        <cc:license
           rdf:resource="https://github.com/greenarmor/citizen-protocol-v0.1.0?tab=License-1-ov-file" />
      </cc:Work>
    </rdf:RDF>
  </metadata>
</svg>
